<svg id="svg" xmlns="http://www.w3.org/2000/svg" xmlns:xlink="http://www.w3.org/1999/xlink" width="400" height="400" viewBox="0, 0, 400,400"><g id="svgg"><path id="path0" d="M68.000 24.000 C 68.000 29.524,67.444 30.000,61.000 30.000 C 54.556 30.000,54.000 30.476,54.000 36.000 C 54.000 41.524,54.556 42.000,61.000 42.000 C 67.444 42.000,68.000 42.476,68.000 48.000 C 68.000 53.067,68.778 54.000,73.000 54.000 L 78.000 54.000 78.000 84.000 L 78.000 114.000 84.000 114.000 L 90.000 114.000 90.000 138.000 L 90.000 162.000 84.000 162.000 C 78.667 162.000,78.000 162.667,78.000 168.000 C 78.000 173.067,77.222 174.000,73.000 174.000 C 69.000 174.000,68.000 175.000,68.000 179.000 C 68.000 183.381,67.133 184.000,61.000 184.000 C 54.333 184.000,54.000 184.333,54.000 191.000 C 54.000 197.133,53.381 198.000,49.000 198.000 C 44.778 198.000,44.000 198.933,44.000 204.000 C 44.000 209.333,43.333 210.000,38.000 210.000 L 32.000 210.000 32.000 222.000 L 32.000 234.000 38.000 234.000 C 43.067 234.000,44.000 234.778,44.000 239.000 C 44.000 243.000,45.000 244.000,49.000 244.000 C 53.222 244.000,54.000 244.933,54.000 250.000 L 54.000 256.000 112.000 256.000 L 170.000 256.000 170.000 268.000 C 170.000 279.467,169.778 280.000,165.000 280.000 C 160.778 280.000,160.000 280.933,160.000 286.000 C 160.000 291.333,159.333 292.000,154.000 292.000 L 148.000 292.000 148.000 316.000 L 148.000 340.000 142.000 340.000 L 136.000 340.000 136.000 352.000 L 136.000 364.000 119.000 364.000 L 102.000 364.000 102.000 370.000 C 102.000 375.333,101.333 376.000,96.000 376.000 L 90.000 376.000 90.000 388.000 L 90.000 400.000 96.000 400.000 L 102.000 400.000 102.000 388.000 L 102.000 376.000 125.000 376.000 L 148.000 376.000 148.000 364.000 L 148.000 352.000 154.000 352.000 L 160.000 352.000 160.000 364.000 C 160.000 375.467,160.222 376.000,165.000 376.000 C 169.778 376.000,170.000 375.467,170.000 364.000 L 170.000 352.000 177.000 352.000 L 184.000 352.000 184.000 370.000 L 184.000 388.000 190.000 388.000 C 195.333 388.000,196.000 387.333,196.000 382.000 L 196.000 376.000 208.000 376.000 L 220.000 376.000 220.000 382.000 L 220.000 388.000 237.000 388.000 L 254.000 388.000 254.000 394.000 L 254.000 400.000 306.000 400.000 L 358.000 400.000 358.000 394.000 C 358.000 388.667,357.333 388.000,352.000 388.000 C 346.667 388.000,346.000 387.333,346.000 382.000 C 346.000 376.933,345.222 376.000,341.000 376.000 C 336.778 376.000,336.000 375.067,336.000 370.000 L 336.000 364.000 324.000 364.000 L 312.000 364.000 312.000 358.000 C 312.000 352.667,311.333 352.000,306.000 352.000 L 300.000 352.000 300.000 340.000 C 300.000 328.533,299.778 328.000,295.000 328.000 C 290.273 328.000,290.000 327.400,290.000 317.000 L 290.000 306.000 283.000 306.000 C 276.333 306.000,276.000 305.667,276.000 299.000 C 276.000 292.867,275.381 292.000,271.000 292.000 C 266.273 292.000,266.000 291.400,266.000 281.000 C 266.000 270.111,265.939 270.000,260.000 270.000 C 254.476 270.000,254.000 269.444,254.000 263.000 C 254.000 256.556,254.476 256.000,260.000 256.000 L 266.000 256.000 266.000 233.000 L 266.000 210.000 271.000 210.000 C 275.821 210.000,276.000 209.533,276.000 197.000 L 276.000 184.000 283.000 184.000 C 289.133 184.000,290.000 183.381,290.000 179.000 C 290.000 175.000,291.000 174.000,295.000 174.000 C 299.222 174.000,300.000 173.067,300.000 168.000 C 300.000 162.667,300.667 162.000,306.000 162.000 L 312.000 162.000 312.000 150.000 C 312.000 138.533,312.222 138.000,317.000 138.000 L 322.000 138.000 322.000 114.000 L 322.000 90.000 317.000 90.000 C 312.778 90.000,312.000 89.067,312.000 84.000 L 312.000 78.000 277.000 78.000 L 242.000 78.000 242.000 84.000 L 242.000 90.000 213.000 90.000 L 184.000 90.000 184.000 84.000 C 184.000 78.476,183.444 78.000,177.000 78.000 C 170.556 78.000,170.000 77.524,170.000 72.000 C 170.000 66.061,169.889 66.000,159.000 66.000 C 148.111 66.000,148.000 65.939,148.000 60.000 L 148.000 54.000 136.000 54.000 L 124.000 54.000 124.000 48.000 C 124.000 42.933,123.222 42.000,119.000 42.000 C 114.778 42.000,114.000 41.067,114.000 36.000 L 114.000 30.000 102.000 30.000 L 90.000 30.000 90.000 24.000 C 90.000 18.061,89.889 18.000,79.000 18.000 C 68.111 18.000,68.000 18.061,68.000 24.000 M102.000 90.000 L 102.000 102.000 96.000 102.000 L 90.000 102.000 90.000 90.000 L 90.000 78.000 96.000 78.000 L 102.000 78.000 102.000 90.000 M124.000 84.000 C 124.000 89.333,124.667 90.000,130.000 90.000 C 135.333 90.000,136.000 89.333,136.000 84.000 C 136.000 78.667,136.667 78.000,142.000 78.000 C 147.333 78.000,148.000 78.667,148.000 84.000 C 148.000 89.333,147.333 90.000,142.000 90.000 C 136.667 90.000,136.000 90.667,136.000 96.000 C 136.000 101.333,136.667 102.000,142.000 102.000 C 147.333 102.000,148.000 102.667,148.000 108.000 C 148.000 113.333,148.667 114.000,154.000 114.000 C 159.333 114.000,160.000 114.667,160.000 120.000 L 160.000 126.000 172.000 126.000 L 184.000 126.000 184.000 120.000 C 184.000 114.476,183.444 114.000,177.000 114.000 C 170.556 114.000,170.000 113.524,170.000 108.000 C 170.000 102.476,170.556 102.000,177.000 102.000 C 183.444 102.000,184.000 102.476,184.000 108.000 L 184.000 114.000 202.000 114.000 L 220.000 114.000 220.000 108.000 L 220.000 102.000 237.000 102.000 L 254.000 102.000 254.000 96.000 L 254.000 90.000 277.000 90.000 L 300.000 90.000 300.000 96.000 C 300.000 101.333,300.667 102.000,306.000 102.000 L 312.000 102.000 312.000 114.000 L 312.000 126.000 306.000 126.000 C 300.667 126.000,300.000 126.667,300.000 132.000 C 300.000 137.067,299.222 138.000,295.000 138.000 C 291.000 138.000,290.000 139.000,290.000 143.000 C 290.000 147.778,289.467 148.000,278.000 148.000 L 266.000 148.000 266.000 155.000 C 266.000 161.444,265.524 162.000,260.000 162.000 C 254.667 162.000,254.000 162.667,254.000 168.000 L 254.000 174.000 242.000 174.000 C 230.533 174.000,230.000 174.222,230.000 179.000 C 230.000 183.778,229.467 184.000,218.000 184.000 L 206.000 184.000 206.000 191.000 C 206.000 197.133,205.381 198.000,201.000 198.000 C 196.619 198.000,196.000 197.133,196.000 191.000 C 196.000 184.556,195.524 184.000,190.000 184.000 L 184.000 184.000 184.000 197.000 L 184.000 210.000 172.000 210.000 C 160.533 210.000,160.000 210.222,160.000 215.000 C 160.000 219.963,159.867 220.000,142.000 220.000 L 124.000 220.000 124.000 227.000 L 124.000 234.000 107.000 234.000 C 90.200 234.000,90.000 234.059,90.000 239.000 C 90.000 243.727,89.400 244.000,79.000 244.000 C 68.600 244.000,68.000 243.727,68.000 239.000 C 68.000 234.619,67.133 234.000,61.000 234.000 L 54.000 234.000 54.000 216.000 L 54.000 198.000 61.000 198.000 C 67.667 198.000,68.000 197.667,68.000 191.000 C 68.000 184.867,68.619 184.000,73.000 184.000 C 77.000 184.000,78.000 183.000,78.000 179.000 C 78.000 174.222,78.533 174.000,90.000 174.000 L 102.000 174.000 102.000 144.000 L 102.000 114.000 108.000 114.000 L 114.000 114.000 114.000 131.000 L 114.000 148.000 125.000 148.000 C 135.400 148.000,136.000 147.727,136.000 143.000 C 136.000 138.778,135.067 138.000,130.000 138.000 L 124.000 138.000 124.000 120.000 C 124.000 102.133,123.963 102.000,119.000 102.000 C 114.222 102.000,114.000 101.467,114.000 90.000 C 114.000 78.533,114.222 78.000,119.000 78.000 C 123.222 78.000,124.000 78.933,124.000 84.000 M136.000 132.000 L 136.000 138.000 148.000 138.000 L 160.000 138.000 160.000 132.000 L 160.000 126.000 148.000 126.000 L 136.000 126.000 136.000 132.000 M230.000 209.000 C 230.000 219.400,229.727 220.000,225.000 220.000 C 220.273 220.000,220.000 219.400,220.000 209.000 C 220.000 198.600,220.273 198.000,225.000 198.000 C 229.727 198.000,230.000 198.600,230.000 209.000 M196.000 334.000 C 196.000 339.333,195.333 340.000,190.000 340.000 C 184.667 340.000,184.000 339.333,184.000 334.000 C 184.000 328.667,184.667 328.000,190.000 328.000 C 195.333 328.000,196.000 328.667,196.000 334.000 M230.000 370.000 C 230.000 375.067,229.222 376.000,225.000 376.000 C 220.778 376.000,220.000 375.067,220.000 370.000 C 220.000 364.933,220.778 364.000,225.000 364.000 C 229.222 364.000,230.000 364.933,230.000 370.000 " stroke="none" fill="#000000" fill-rule="evenodd"></path></g></svg>